<?xml version="1.0" encoding="UTF-8"?>
<!DOCTYPE svg PUBLIC "-//W3C//DTD SVG 1.1//EN" "http://www.w3.org/Graphics/SVG/1.1/DTD/svg11.dtd">
<!-- Creator: CorelDRAW 2018 (64-Bit) -->
<svg xmlns="http://www.w3.org/2000/svg" xml:space="preserve" width="210mm" height="210mm" version="1.1" style="shape-rendering:geometricPrecision; text-rendering:geometricPrecision; image-rendering:optimizeQuality; fill-rule:evenodd; clip-rule:evenodd"
viewBox="0 0 21000.04 21000.04"
 xmlns:xlink="http://www.w3.org/1999/xlink">
 <defs>
  <style type="text/css">
   <![CDATA[
    .fil0 {fill:#714588}
    .fil1 {fill:#FCFCFC}
   ]]>
  </style>
 </defs>
 <g id="Layer_x0020_1">
  <metadata id="CorelCorpID_0Corel-Layer"/>
  <path class="fil0" d="M13701.58 13121.75c0,1987.97 -1861.88,1942.03 -2058.75,1942.03l-3791.72 0 0 -3829.22 3791.72 0c1995,0 2058.75,1495.31 2058.75,1887.19zm-2350.78 -3427.97c31.41,0 1801.88,46.88 1801.88,-1702.03 0,-727.5 -164.53,-1681.41 -1801.88,-1681.41l-3499.69 0 0 3383.44 3499.69 0zm9649.22 -6193.59l0 13999.7c-5.55,1930.71 -1569.43,3494.59 -3500.16,3500.16l-13999.69 -0.01c-1930.72,-5.56 -3494.6,-1569.44 -3500.17,-3500.17l0.01 -13999.68c5.56,-1930.73 1569.44,-3494.61 3500.17,-3500.18l13999.68 0.02c1930.73,5.55 3494.61,1569.43 3500.18,3500.16l-0.02 0zm-5153.91 9899.53c0,-1011.09 -311.72,-2732.34 -2299.22,-3157.03l0 -34.22c1073.91,-458.44 1750.31,-1324.22 1750.31,-2608.13 0,-328.13 93.75,-3036.56 -3637.5,-3036.56l-5953.12 0 0 12249.85c6010.78,0 6556.41,78.75 7668.75,-267.66 666.09,-207.19 2470.78,-842.81 2470.78,-3146.25l0 0.01z"/>
  <path class="fil1" d="M7851.1 9693.77l0 -3383.44 3499.69 0c1637.35,0 1801.88,953.91 1801.88,1681.41 0,1748.91 -1770.47,1702.03 -1801.88,1702.03l-3499.69 0zm0 1540.78l3791.72 0c1995,0 2058.75,1495.31 2058.75,1887.19 0,1987.97 -1861.88,1942.03 -2058.75,1942.03l-3791.72 0 0 -3829.22zm5695.78 -1026.09c1073.91,-458.44 1750.31,-1324.22 1750.31,-2608.13 0,-328.13 93.75,-3036.56 -3637.5,-3036.56l-5953.12 0 0 12249.85c6010.78,0 6556.41,78.75 7668.75,-267.66 666.09,-207.19 2470.78,-842.81 2470.78,-3146.24 0,-1011.09 -311.72,-2732.34 -2299.22,-3157.03l0 -34.22z"/>
 </g>
</svg>
