<?xml version="1.0" encoding="UTF-8"?>
<!DOCTYPE svg PUBLIC "-//W3C//DTD SVG 1.1//EN" "http://www.w3.org/Graphics/SVG/1.1/DTD/svg11.dtd">
<!-- Creator: CorelDRAW 2018 (64-Bit) -->
<svg xmlns="http://www.w3.org/2000/svg" xml:space="preserve" width="210mm" height="297mm" version="1.1" style="shape-rendering:geometricPrecision; text-rendering:geometricPrecision; image-rendering:optimizeQuality; fill-rule:evenodd; clip-rule:evenodd"
viewBox="0 0 21000 29700"
 xmlns:xlink="http://www.w3.org/1999/xlink">
 <defs>
  <style type="text/css">
   <![CDATA[
    .fil0 {fill:#FEFEFE}
   ]]>
  </style>
 </defs>
 <g id="Layer_x0020_1">
  <metadata id="CorelCorpID_0Corel-Layer"/>
  <path class="fil0" d="M13125 18131.25c0,362.58 -293.67,656.25 -656.25,656.25l-3937.5 0c-362.58,0 -656.25,-293.67 -656.25,-656.25l0 -1968.75 -7875 0 0 5906.25c0,1050 918.75,1968.75 1968.75,1968.75l17062.5 0c1050,0 1968.75,-918.75 1968.75,-1968.75l0 -5906.25 -7875 0 0 1968.75zm5906.25 -8531.25l-3281.25 0 0 -1968.75c0,-1050 -918.75,-1968.75 -1968.75,-1968.75l-6562.5 0c-1050,0 -1968.75,918.75 -1968.75,1968.75l0 1968.75 -3281.25 0c-1050,0 -1968.75,918.75 -1968.75,1968.75l0 3281.25 21000 0 0 -3281.25c0,-1050 -918.75,-1968.75 -1968.75,-1968.75zm-5906.25 0l-5250 0 0 -1312.5 5250 0 0 1312.5z"/>
 </g>
</svg>
