<?xml version="1.0" encoding="UTF-8"?>
<!DOCTYPE svg PUBLIC "-//W3C//DTD SVG 1.1//EN" "http://www.w3.org/Graphics/SVG/1.1/DTD/svg11.dtd">
<!-- Creator: CorelDRAW 2018 (64-Bit) -->
<svg xmlns="http://www.w3.org/2000/svg" xml:space="preserve" width="210mm" height="297mm" version="1.1" style="shape-rendering:geometricPrecision; text-rendering:geometricPrecision; image-rendering:optimizeQuality; fill-rule:evenodd; clip-rule:evenodd"
viewBox="0 0 21000 29700"
 xmlns:xlink="http://www.w3.org/1999/xlink">
 <defs>
  <style type="text/css">
   <![CDATA[
    .fil0 {fill:#FEFEFE}
   ]]>
  </style>
 </defs>
 <g id="Layer_x0020_1">
  <metadata id="CorelCorpID_0Corel-Layer"/>
  <path class="fil0" d="M16803.28 12717.19l-269.06 469.22c-98.44,173.91 -308.44,246.09 -495.47,177.19 -387.19,-144.38 -741.56,-351.09 -1053.28,-610.31 -150.94,-124.69 -190.31,-344.53 -91.88,-515.16l269.06 -469.22c-226.41,-262.5 -403.59,-567.66 -521.72,-899.06l-541.4 -0.01c-196.88,0 -367.5,-141.09 -400.31,-337.97 -65.63,-393.75 -68.91,-807.19 0,-1217.34 32.81,-196.88 203.44,-341.25 400.31,-341.25l541.41 0c118.13,-331.41 295.31,-636.56 521.72,-899.06l-269.06 -469.22c-98.44,-170.63 -62.34,-390.47 91.88,-515.16 311.72,-259.22 669.38,-465.94 1053.28,-610.31 187.03,-68.91 397.03,3.28 495.47,177.19l269.06 469.22c344.53,-62.34 695.63,-62.34 1040.16,0l269.05 -469.22c98.44,-173.91 308.44,-246.09 495.47,-177.19 387.19,144.38 741.56,351.09 1053.28,610.31 150.94,124.69 190.31,344.53 91.88,515.16l-269.06 469.22c226.41,262.5 403.59,567.66 521.72,899.06l541.4 0c196.88,0 367.5,141.09 400.31,337.97 65.63,393.75 68.91,807.19 0,1217.34 -32.81,196.88 -203.44,341.25 -400.31,341.25l-541.41 0c-118.13,331.41 -295.31,636.56 -521.72,899.06l269.06 469.22c98.44,170.63 62.34,390.47 -91.88,515.16 -311.72,259.22 -669.38,465.94 -1053.28,610.31 -187.03,68.91 -397.03,-3.28 -495.47,-177.19l-269.06 -469.22c-341.25,62.34 -695.63,62.34 -1040.16,0l0.01 0.01zm-344.53 -1929.38c1263.28,971.25 2703.75,-469.22 1732.5,-1732.5 -1263.28,-974.53 -2703.75,469.22 -1732.5,1732.5zm-3783.28 5049.85l1105.78 551.25c331.41,190.31 475.78,593.91 344.53,954.84 -292.03,794.06 -866.25,1522.5 -1397.81,2159.06 -242.81,292.03 -662.81,364.22 -994.22,173.91l-954.84 -551.25c-525,449.53 -1135.31,807.19 -1801.41,1040.16l0 1102.5c0,380.63 -272.34,708.75 -646.41,774.38 -807.19,137.81 -1653.75,144.38 -2490.47,0 -377.34,-65.63 -656.25,-390.47 -656.25,-774.38l0 -1102.5c-666.09,-236.25 -1276.41,-590.63 -1801.41,-1040.16l-954.84 547.97c-328.13,190.31 -751.41,118.13 -994.22,-173.91 -531.56,-636.56 -1092.66,-1365 -1384.69,-2155.78 -131.25,-357.66 13.13,-761.25 344.53,-954.84l1092.66 -551.25c-127.97,-685.78 -127.97,-1391.25 0,-2080.31l-1092.65 -554.54c-331.41,-190.31 -479.06,-593.91 -344.53,-951.56 292.03,-794.06 853.13,-1522.5 1384.69,-2159.06 242.81,-292.03 662.81,-364.22 994.22,-173.91l954.84 551.25c525,-449.53 1135.31,-807.19 1801.41,-1040.16l-0.01 -1105.78c0,-377.34 269.06,-705.47 643.13,-771.09 807.19,-137.81 1657.03,-144.38 2493.75,-3.28 377.34,65.63 656.25,390.47 656.25,774.38l0 1102.5c666.09,236.25 1276.41,590.63 1801.41,1040.16l954.84 -551.25c328.13,-190.31 751.41,-118.13 994.22,173.91 531.56,636.56 1089.38,1365 1381.41,2159.06 131.25,357.66 3.28,761.25 -328.13,954.84l-1105.78 551.25c127.97,689.06 127.97,1394.53 0,2083.59zm-3858.75 692.34c1942.5,-2526.56 -941.72,-5410.78 -3468.28,-3468.28 -1942.5,2526.56 941.72,5410.78 3468.28,3468.28zm7986.56 5994.84l-269.06 469.22c-98.44,173.91 -308.44,246.09 -495.47,177.19 -387.19,-144.38 -741.56,-351.09 -1053.28,-610.31 -150.94,-124.69 -190.31,-344.53 -91.88,-515.16l269.06 -469.22c-226.41,-262.5 -403.59,-567.66 -521.72,-899.06l-541.4 0c-196.88,0 -367.5,-141.09 -400.31,-337.97 -65.63,-393.75 -68.91,-807.19 0,-1217.34 32.81,-196.88 203.44,-341.25 400.31,-341.25l541.41 0c118.13,-331.41 295.31,-636.56 521.72,-899.06l-269.06 -469.22c-98.44,-170.63 -62.34,-390.47 91.88,-515.16 311.72,-259.22 669.38,-465.94 1053.28,-610.31 187.03,-68.91 397.03,3.28 495.47,177.19l269.06 469.22c344.53,-62.34 695.63,-62.34 1040.16,0l269.06 -469.22c98.44,-173.91 308.44,-246.09 495.47,-177.19 387.19,144.38 741.56,351.09 1053.28,610.31 150.94,124.69 190.31,344.53 91.88,515.16l-269.06 469.22c226.41,262.5 403.59,567.66 521.72,899.06l541.39 0c196.88,0 367.5,141.09 400.31,337.97 65.63,393.75 68.91,807.19 0,1217.34 -32.81,196.88 -203.44,341.25 -400.31,341.25l-541.41 0c-118.13,331.41 -295.31,636.56 -521.72,899.06l269.06 469.22c98.44,170.63 62.34,390.47 -91.88,515.16 -311.72,259.22 -669.38,465.94 -1053.28,610.31 -187.03,68.91 -397.03,-3.28 -495.47,-177.19l-269.06 -469.22c-341.25,62.34 -695.63,62.34 -1040.16,0l0.01 0zm-344.53 -1932.65c1263.28,971.25 2703.75,-469.22 1732.5,-1732.5 -1263.28,-971.25 -2703.75,469.22 -1732.5,1732.5z"/>
 </g>
</svg>
