<?xml version="1.0" encoding="UTF-8"?>
<!DOCTYPE svg PUBLIC "-//W3C//DTD SVG 1.1//EN" "http://www.w3.org/Graphics/SVG/1.1/DTD/svg11.dtd">
<!-- Creator: CorelDRAW 2018 (64-Bit) -->
<svg xmlns="http://www.w3.org/2000/svg" xml:space="preserve" width="210mm" height="297mm" version="1.1" style="shape-rendering:geometricPrecision; text-rendering:geometricPrecision; image-rendering:optimizeQuality; fill-rule:evenodd; clip-rule:evenodd"
viewBox="0 0 21000 29700"
 xmlns:xlink="http://www.w3.org/1999/xlink">
 <defs>
  <style type="text/css">
   <![CDATA[
    .fil0 {fill:#008FD7}
   ]]>
  </style>
 </defs>
 <g id="Layer_x0020_1">
  <metadata id="CorelCorpID_0Corel-Layer"/>
  <path class="fil0" d="M-0 2600l1908.59 21645.31 8591.41 2854.69 8591.41 -2854.69 1908.59 -21645.31 -21000 0zm17122.66 4375l-262.5 2586.72 -6305.47 2696.09 -16.41 5.47 6097.66 0 -700 8017.19 -5370.31 1569.53 -5403.13 -1596.88 -350 -4041.41 2674.22 0.01 175 2094.53 2876.56 727.34 2991.41 -842.19 202.34 -3368.75 -9094.53 -27.34 0 -5.47 -10.94 5.47 -196.88 -2532.03 6130.48 -2553.91 355.47 -147.66 -6721.1 0.01 -317.19 -2586.72 13245.32 0z"/>
 </g>
</svg>
