<?xml version="1.0" encoding="UTF-8"?>
<!DOCTYPE svg PUBLIC "-//W3C//DTD SVG 1.1//EN" "http://www.w3.org/Graphics/SVG/1.1/DTD/svg11.dtd">
<!-- Creator: CorelDRAW 2018 (64-Bit) -->
<svg xmlns="http://www.w3.org/2000/svg" xml:space="preserve" width="210mm" height="204.753mm" version="1.1" style="shape-rendering:geometricPrecision; text-rendering:geometricPrecision; image-rendering:optimizeQuality; fill-rule:evenodd; clip-rule:evenodd"
viewBox="0 0 21000 20475.33"
 xmlns:xlink="http://www.w3.org/1999/xlink">
 <defs>
  <style type="text/css">
   <![CDATA[
    .fil0 {fill:#FEFEFE}
   ]]>
  </style>
 </defs>
 <g id="Layer_x0020_1">
  <metadata id="CorelCorpID_0Corel-Layer"/>
  <path class="fil0" d="M7023.99 16486.69c0,84.68 -97.38,152.42 -220.16,152.42 -139.72,12.7 -237.1,-55.04 -237.1,-152.42 0,-84.68 97.38,-152.42 220.16,-152.42 127.02,-12.7 237.1,55.04 237.1,152.42zm-1316.73 -190.52c-29.64,84.68 55.04,182.06 182.06,207.46 110.08,42.34 237.1,0 262.5,-84.68 25.4,-84.68 -55.04,-182.06 -182.06,-220.16 -110.08,-29.64 -232.86,12.7 -262.5,97.38zm1871.37 -71.98c-122.78,29.64 -207.46,110.08 -194.76,207.46 12.7,84.68 122.78,139.72 249.8,110.08 122.78,-29.64 207.46,-110.08 194.76,-194.76 -12.7,-80.44 -127.02,-135.48 -249.8,-122.78zm2785.89 -16224.19c-5872.38,0 -10364.52,4458.27 -10364.52,10330.65 0,4695.36 2955.24,8713.31 7176.41,10127.42 541.94,97.38 732.46,-237.1 732.46,-512.3 0,-262.5 -12.7,-1710.48 -12.7,-2599.6 0,0 -2963.71,635.08 -3586.09,-1261.69 0,0 -482.66,-1232.06 -1177.02,-1549.6 0,0 -969.56,-664.72 67.74,-652.02 0,0 1054.23,84.68 1634.27,1092.34 927.22,1634.27 2481.05,1164.31 3086.49,884.88 97.38,-677.42 372.58,-1147.38 677.42,-1426.81 -2366.73,-262.5 -4754.64,-605.44 -4754.64,-4678.43 0,-1164.31 321.77,-1748.59 999.19,-2493.75 -110.08,-275.2 -469.96,-1409.88 110.08,-2874.8 884.88,-275.2 2921.37,1143.15 2921.37,1143.15 846.77,-237.1 1757.06,-359.88 2658.87,-359.88 901.81,0 1812.1,122.78 2658.87,359.88 0,0 2036.49,-1422.58 2921.37,-1143.15 580.04,1469.15 220.16,2599.6 110.08,2874.8 677.42,749.4 1092.34,1333.67 1092.34,2493.75 0,4085.69 -2493.75,4411.69 -4860.48,4678.43 389.52,334.48 719.76,969.56 719.76,1964.52 0,1426.81 -12.7,3192.34 -12.7,3539.52 0,275.2 194.76,609.68 732.46,512.3 4233.89,-1405.66 7104.45,-5423.6 7104.45,-10118.96 0,-5872.38 -4763.1,-10330.65 -10635.48,-10330.65zm-6249.2 14602.62c-55.04,42.34 -42.34,139.72 29.64,220.16 67.74,67.74 165.12,97.38 220.16,42.34 55.04,-42.34 42.34,-139.72 -29.64,-220.16 -67.74,-67.74 -165.12,-97.38 -220.16,-42.34zm-457.26 -342.94c-29.64,55.04 12.7,122.78 97.38,165.12 67.74,42.34 152.42,29.64 182.06,-29.64 29.64,-55.04 -12.7,-122.78 -97.38,-165.12 -84.68,-25.4 -152.42,-12.7 -182.06,29.64zm1371.78 1507.26c-67.74,55.04 -42.34,182.06 55.04,262.5 97.38,97.38 220.16,110.08 275.2,42.34 55.04,-55.04 29.64,-182.06 -55.04,-262.5 -93.15,-97.38 -220.16,-110.08 -275.2,-42.34zm-482.66 -622.38c-67.74,42.34 -67.74,152.42 0,249.8 67.74,97.38 182.06,139.72 237.1,97.38 67.74,-55.04 67.74,-165.12 0,-262.5 -59.27,-97.38 -169.35,-139.72 -237.1,-84.68z"/>
 </g>
</svg>
