<?xml version="1.0" encoding="UTF-8"?>
<!DOCTYPE svg PUBLIC "-//W3C//DTD SVG 1.1//EN" "http://www.w3.org/Graphics/SVG/1.1/DTD/svg11.dtd">
<!-- Creator: CorelDRAW 2018 (64-Bit) -->
<svg xmlns="http://www.w3.org/2000/svg" xml:space="preserve" width="210mm" height="297mm" version="1.1" style="shape-rendering:geometricPrecision; text-rendering:geometricPrecision; image-rendering:optimizeQuality; fill-rule:evenodd; clip-rule:evenodd"
viewBox="0 0 21000 29700"
 xmlns:xlink="http://www.w3.org/1999/xlink">
 <defs>
  <style type="text/css">
   <![CDATA[
    .fil0 {fill:#FEFEFE}
   ]]>
  </style>
 </defs>
 <g id="Layer_x0020_1">
  <metadata id="CorelCorpID_0Corel-Layer"/>
  <path class="fil0" d="M20420.53 11476.87l-9152.72 -2812.03c-498.75,-153.23 -1036.88,-153.23 -1535.3,0l-9153.04 2812.03c-772.41,237.23 -772.41,1258.69 0,1495.92l1595.67 490.22c-350.11,432.8 -565.36,960.75 -586.69,1538.91 -315.98,181.13 -538.45,507.94 -538.45,898.08 0,353.72 186.38,651.33 454.78,841.64l-837.7 3769.5c-72.85,327.8 176.53,638.86 512.2,638.86l1841.11 0c336,0 585.38,-311.06 512.53,-638.86l-837.7 -3769.5c268.4,-190.31 454.78,-487.92 454.78,-841.64 0,-379.64 -212.3,-697.27 -513.84,-881.67 24.94,-492.84 276.94,-928.59 678.89,-1204.88l6417.14 1971.71c297.28,91.22 867.56,205.08 1535.3,0l9153.05 -2812.03c772.73,-237.56 772.73,-1258.69 0,-1496.25l-0.01 -0.01zm-8844.61 5312.02c-936.14,287.44 -1733.81,128.63 -2152.17,0l-4758.47 -1461.8 -465.28 3722.91c0,1159.92 2820.56,2100 6300,2100 3479.44,0 6300,-940.08 6300,-2100l-465.28 -3723.23 -4758.8 1462.13 0 -0.01z"/>
 </g>
</svg>
