<?xml version="1.0" encoding="UTF-8"?>
<!DOCTYPE svg PUBLIC "-//W3C//DTD SVG 1.1//EN" "http://www.w3.org/Graphics/SVG/1.1/DTD/svg11.dtd">
<!-- Creator: CorelDRAW 2018 (64-Bit) -->
<svg xmlns="http://www.w3.org/2000/svg" xml:space="preserve" width="210.117mm" height="210.07mm" version="1.1" style="shape-rendering:geometricPrecision; text-rendering:geometricPrecision; image-rendering:optimizeQuality; fill-rule:evenodd; clip-rule:evenodd"
viewBox="0 0 21016.42 21011.73"
 xmlns:xlink="http://www.w3.org/1999/xlink">
 <defs>
  <style type="text/css">
   <![CDATA[
    .fil0 {fill:#FEFEFE}
   ]]>
  </style>
 </defs>
 <g id="Layer_x0020_1">
  <metadata id="CorelCorpID_0Corel-Layer"/>
  <path class="fil0" d="M10510.56 5118.72c-2981.92,0 -5387.14,2405.23 -5387.14,5387.14 0,2981.92 2405.23,5387.14 5387.14,5387.14 2981.92,0 5387.14,-2405.23 5387.14,-5387.14 0,-2981.92 -2405.23,-5387.14 -5387.14,-5387.14zm0 8889.49c-1926.99,0 -3502.34,-1570.66 -3502.34,-3502.34 0,-1931.68 1570.66,-3502.34 3502.34,-3502.34 1931.68,0 3502.34,1570.66 3502.34,3502.34 0,1931.68 -1575.35,3502.34 -3502.34,3502.34zm6864.03 -9109.85c0,698.6 -562.63,1256.53 -1256.53,1256.53 -698.6,0 -1256.53,-562.63 -1256.53,-1256.53 0,-693.9 562.63,-1256.53 1256.53,-1256.53 693.9,0 1256.53,562.63 1256.53,1256.53zm3567.99 1275.28c-79.71,-1683.19 -464.16,-3174.15 -1697.26,-4402.54 -1228.4,-1228.4 -2719.36,-1612.86 -4402.54,-1697.26 -1734.77,-98.46 -6934.36,-98.46 -8669.13,0 -1678.5,79.71 -3169.46,464.16 -4402.54,1692.57 -1233.09,1228.4 -1612.86,2719.36 -1697.26,4402.54 -98.46,1734.77 -98.46,6934.36 0,8669.13 79.71,1683.19 464.16,3174.15 1697.26,4402.54 1233.1,1228.39 2719.36,1612.86 4402.54,1697.26 1734.77,98.46 6934.36,98.46 8669.13,0 1683.19,-79.71 3174.15,-464.16 4402.54,-1697.26 1228.4,-1228.4 1612.86,-2719.36 1697.26,-4402.54 98.46,-1734.77 98.46,-6929.68 0,-8664.43zm-2241.13 10525.79c-365.71,918.96 -1073.68,1626.92 -1997.33,1997.33 -1383.12,548.56 -4665.1,421.97 -6193.57,421.97 -1528.47,0 -4815.13,121.91 -6193.57,-421.97 -918.96,-365.71 -1626.92,-1073.68 -1997.33,-1997.33 -548.56,-1383.12 -421.97,-4665.1 -421.97,-6193.57 0,-1528.47 -121.91,-4815.13 421.97,-6193.57 365.71,-918.96 1073.68,-1626.92 1997.33,-1997.33 1383.12,-548.56 4665.1,-421.97 6193.57,-421.97 1528.47,0 4815.13,-121.91 6193.57,421.97 918.96,365.71 1626.92,1073.68 1997.33,1997.33 548.56,1383.12 421.97,4665.1 421.97,6193.57 0,1528.47 126.59,4815.13 -421.97,6193.57z"/>
 </g>
</svg>
