<?xml version="1.0" encoding="UTF-8"?>
<!DOCTYPE svg PUBLIC "-//W3C//DTD SVG 1.1//EN" "http://www.w3.org/Graphics/SVG/1.1/DTD/svg11.dtd">
<!-- Creator: CorelDRAW 2018 (64-Bit) -->
<svg xmlns="http://www.w3.org/2000/svg" xml:space="preserve" width="210mm" height="210mm" version="1.1" style="shape-rendering:geometricPrecision; text-rendering:geometricPrecision; image-rendering:optimizeQuality; fill-rule:evenodd; clip-rule:evenodd"
viewBox="0 0 21000 21000"
 xmlns:xlink="http://www.w3.org/1999/xlink">
 <defs>
  <style type="text/css">
   <![CDATA[
    .fil0 {fill:#FDD100}
    .fil1 {fill:black}
   ]]>
  </style>
 </defs>
 <g id="Layer_x0020_1">
  <metadata id="CorelCorpID_0Corel-Layer"/>
  <path class="fil0" d="M-0 0l0 21000 21000 0 0 -21000 -21000 0zm11428.13 16378.13c0,2043.75 -1200,2976.56 -2948.44,2976.56 -1579.69,0 -2493.75,-815.63 -2962.5,-1804.69l1607.81 -970.31c309.38,548.44 590.63,1012.5 1270.31,1012.5 646.88,0 1059.38,-253.13 1059.38,-1242.19l0 -6707.81 1973.44 0 0 6735.94zm4668.75 2976.56c-1832.81,0 -3018.75,-871.88 -3595.31,-2015.63l1607.81 -928.13c421.88,689.06 975,1200 1945.31,1200 815.63,0 1340.63,-407.81 1340.63,-975 0,-675 -534.38,-914.06 -1439.06,-1312.5l-492.19 -210.94c-1425,-604.69 -2367.19,-1368.75 -2367.19,-2976.56 0,-1481.25 1129.69,-2606.25 2887.5,-2606.25 1256.25,0 2156.25,435.94 2803.13,1579.69l-1537.51 984.38c-337.5,-604.69 -703.13,-843.75 -1270.31,-843.75 -576.56,0 -942.19,365.63 -942.19,843.75 0,590.63 365.63,829.69 1214.06,1200l492.19 210.94c1678.13,717.19 2620.31,1453.13 2620.31,3103.13 0,1771.88 -1396.88,2746.88 -3267.19,2746.88l0.01 -0.01z"/>
  <path class="fil1" d="M9454.69 9642.19l0 6707.81c0,989.06 -412.5,1242.19 -1059.38,1242.19 -679.68,0 -960.93,-464.06 -1270.31,-1012.5l-1607.81 970.31c468.75,989.06 1382.81,1804.69 2962.5,1804.69 1748.44,0 2948.44,-932.81 2948.44,-2976.56l0 -6735.94 -1973.44 0z"/>
  <path class="fil1" d="M15984.38 9529.68c-1757.81,0 -2887.5,1125 -2887.5,2606.25 0,1607.81 942.19,2371.87 2367.19,2976.56l492.19 210.94c904.68,398.44 1439.06,637.5 1439.06,1312.5 0,567.19 -525,975 -1340.63,975 -970.31,0 -1523.43,-510.94 -1945.31,-1200l-1607.81 928.13c576.56,1143.75 1762.5,2015.63 3595.3,2015.64 1870.31,0 3267.19,-975 3267.19,-2746.88 0,-1650 -942.18,-2385.94 -2620.31,-3103.13l-492.19 -210.94c-848.43,-370.31 -1214.06,-609.37 -1214.06,-1200 0,-478.12 365.63,-843.75 942.19,-843.75 567.18,0 932.81,239.06 1270.31,843.75l1537.51 -984.38c-646.88,-1143.75 -1546.88,-1579.69 -2803.13,-1579.69z"/>
 </g>
</svg>
