<?xml version="1.0" encoding="UTF-8"?>
<!DOCTYPE svg PUBLIC "-//W3C//DTD SVG 1.1//EN" "http://www.w3.org/Graphics/SVG/1.1/DTD/svg11.dtd">
<!-- Creator: CorelDRAW 2018 (64-Bit) -->
<svg xmlns="http://www.w3.org/2000/svg" xml:space="preserve" width="210mm" height="297mm" version="1.1" style="shape-rendering:geometricPrecision; text-rendering:geometricPrecision; image-rendering:optimizeQuality; fill-rule:evenodd; clip-rule:evenodd"
viewBox="0 0 21000 29700"
 xmlns:xlink="http://www.w3.org/1999/xlink">
 <defs>
  <style type="text/css">
   <![CDATA[
    .fil0 {fill:#A0D9F6}
   ]]>
  </style>
 </defs>
 <g id="Layer_x0020_1">
  <metadata id="CorelCorpID_0Corel-Layer"/>
  <path class="fil0" d="M17152.73 11617.97c-221.48,-73.83 -442.97,-143.55 -664.45,-209.18 36.91,-151.76 69.73,-303.52 102.54,-455.27 504.49,-2444.53 172.27,-4409.18 -947.46,-5057.23 -1078.71,-619.34 -2838.28,24.61 -4618.36,1575 -176.37,151.76 -348.63,311.72 -512.7,471.68 -110.74,-106.64 -225.59,-213.28 -340.43,-315.82 -1866.21,-1657.03 -3736.52,-2354.3 -4856.25,-1702.15 -1074.61,623.44 -1394.53,2473.24 -943.36,4786.52 45.12,229.69 94.34,455.27 151.76,684.96 -262.5,73.83 -520.9,155.86 -762.89,241.99 -2190.23,758.8 -3761.13,1956.45 -3761.13,3195.12 0,1279.69 1673.44,2563.48 3949.8,3342.77 184.57,61.52 369.14,123.05 557.81,176.37 -61.52,246.09 -114.84,488.09 -164.06,738.28 -430.66,2276.37 -94.34,4081.05 980.27,4700.39 1107.42,639.84 2969.53,-16.41 4782.42,-1603.71 143.55,-127.15 287.11,-258.4 430.66,-397.85 180.47,176.37 369.14,344.53 557.81,508.59 1755.47,1509.38 3490.43,2120.51 4560.94,1501.17 1107.42,-639.84 1468.36,-2579.88 1000.78,-4942.38 -36.91,-180.47 -77.93,-365.04 -123.05,-553.71 131.25,-36.91 258.4,-77.93 385.55,-118.95 2366.6,-783.4 4081.05,-2050.78 4081.05,-3350.98 0,-1242.77 -1616.02,-2448.63 -3847.27,-3215.63l0.02 0.02zm-5549.41 -3482.23c1525.78,-1328.91 2949.02,-1849.8 3597.07,-1476.56 693.16,397.85 959.77,2005.66 525,4117.97 -28.71,139.45 -57.42,274.8 -94.34,410.16 -910.55,-205.08 -1833.4,-352.73 -2760.35,-434.77 -533.2,-762.89 -1115.63,-1492.97 -1747.27,-2177.93 159.96,-151.76 315.82,-295.31 479.88,-438.87l0.01 0zm-4745.51 8826.56c209.18,356.84 422.46,713.67 648.05,1062.3 -639.84,-69.73 -1275.59,-172.27 -1903.13,-307.62 180.47,-590.63 406.05,-1201.76 668.55,-1825.2 188.67,360.94 381.45,717.77 586.52,1070.51l0.01 0.01zm-1242.77 -4934.18c590.63,-131.25 1218.16,-237.89 1870.31,-319.92 -217.38,340.43 -430.66,689.06 -631.64,1041.8 -200.98,348.63 -397.85,705.47 -582.42,1066.41 -258.4,-611.13 -475.78,-1209.96 -656.25,-1788.28l0 -0.01zm1123.83 2825.98c270.7,-566.02 566.02,-1119.73 877.73,-1665.23 311.71,-545.5 648.05,-1074.61 1000.78,-1595.51 615.23,-45.12 1242.77,-69.73 1882.62,-69.73 639.85,0 1271.48,24.61 1882.62,69.73 348.63,516.8 680.86,1045.9 996.68,1587.3 315.82,541.4 611.13,1095.12 890.04,1657.03 -274.8,566.02 -570.12,1123.83 -885.94,1673.44 -311.72,545.51 -643.95,1074.61 -992.58,1599.61 -611.13,45.12 -1246.88,65.63 -1890.82,65.63 -643.94,0 -1267.38,-20.51 -1870.31,-57.42 -356.84,-520.9 -693.16,-1054.1 -1008.98,-1599.61 -315.82,-545.51 -607.03,-1099.22 -881.84,-1665.23l0 -0.01zm7407.42 2100c209.18,-360.94 406.05,-725.98 598.83,-1095.12 262.5,594.73 492.19,1197.66 693.16,1816.99 -635.74,143.55 -1279.69,254.3 -1927.73,328.13 221.48,-344.53 430.66,-697.27 635.74,-1050zm590.62 -3137.69c-192.77,-360.94 -389.65,-721.88 -594.73,-1074.61 -200.98,-348.63 -410.16,-693.16 -627.54,-1033.59 660.35,82.03 1291.99,192.77 1882.62,328.13 -188.67,607.03 -410.16,1197.66 -660.35,1780.08l0 -0.01zm-4228.71 -4614.26c430.66,467.58 836.72,959.77 1214.06,1468.36 -812.11,-36.91 -1628.32,-36.91 -2440.43,0 401.95,-529.1 816.21,-1021.29 1226.37,-1468.36zm-4757.81 -2514.26c689.06,-401.95 2218.95,172.27 3830.86,1599.61 102.54,90.23 205.08,188.67 311.72,287.11 -635.74,684.96 -1222.27,1415.04 -1759.57,2177.93 -926.95,82.03 -1845.7,225.59 -2756.25,426.56 -53.32,-209.18 -98.44,-422.46 -143.55,-635.74 -385.55,-1985.16 -131.25,-3482.23 516.8,-3855.47l-0.01 0zm-1004.88 10811.72c-172.27,-49.22 -340.43,-102.54 -508.59,-159.96 -873.63,-274.8 -1866.21,-709.57 -2583.98,-1279.69 -414.26,-287.11 -693.16,-730.08 -771.09,-1226.37 0,-750.59 1296.09,-1710.35 3166.41,-2362.5 233.79,-82.03 471.68,-155.86 709.57,-225.59 278.91,890.04 615.23,1763.67 1004.88,2608.59 -393.75,857.23 -734.18,1743.16 -1017.19,2645.51l-0.01 0.01zm4782.42 4019.53c-676.76,619.34 -1460.16,1111.52 -2313.28,1447.85 -455.27,217.38 -980.27,237.89 -1447.85,53.32 -652.15,-377.34 -922.85,-1825.2 -553.71,-3773.44 45.12,-229.69 94.34,-459.38 151.76,-684.96 918.75,196.88 1845.7,332.23 2784.96,401.95 541.41,766.99 1136.13,1501.17 1771.88,2190.23 -131.25,127.15 -262.5,250.2 -393.75,365.04l-0.01 0.01zm1004.88 -996.68c-418.36,-451.17 -836.72,-951.56 -1242.77,-1488.87 393.75,16.41 799.8,24.61 1209.96,24.61 422.46,0 836.72,-8.2 1246.88,-28.71 -377.34,520.9 -783.4,1017.19 -1214.06,1492.97l-0.01 0zm5360.74 1230.47c-36.91,500.39 -283.01,967.97 -676.76,1283.79 -652.15,377.34 -2042.58,-114.84 -3543.75,-1402.73 -172.27,-147.66 -344.53,-307.62 -520.9,-471.68 627.54,-693.16 1205.86,-1427.34 1730.86,-2198.44 939.26,-77.93 1874.41,-221.48 2797.27,-430.66 41.02,168.16 77.93,336.33 110.74,500.39 200.98,885.94 233.79,1808.79 102.54,2719.34l0 -0.01zm746.49 -4409.18c-114.84,36.91 -229.69,73.83 -348.63,106.64 -287.11,-894.14 -639.84,-1767.77 -1045.9,-2616.8 393.75,-836.72 725.98,-1698.05 1004.88,-2579.88 213.28,61.52 418.36,127.15 615.23,192.77 1911.33,656.25 3252.54,1632.42 3252.54,2378.91 0,803.91 -1431.45,1841.6 -3478.13,2518.36l0.01 0zm-6140.04 -615.23c1037.7,0 1878.52,-840.82 1878.52,-1878.52 0,-1037.7 -840.82,-1878.52 -1878.52,-1878.52 -1037.7,0 -1878.52,840.82 -1878.52,1878.52 0,1037.7 840.82,1878.52 1878.52,1878.52z"/>
 </g>
</svg>
